<?xml version="1.0" encoding="UTF-8"?>
<svg version="1.1" viewBox="0 0 2048 592" width="660" height="191" xmlns="http://www.w3.org/2000/svg">
<path transform="translate(1925,17)" d="m0 0h5l-1 12-30 160-20 107-4 23v14l3 8 6 4 5 1h8l10-3 9-7 2-2 2-21 7-40 34-180 12-64 3-2 65-10h3l-1 10-17 92-22 117-15 80v16l3 8 5 4 6 2h10l9-2 1 3-4 17-4 9-6 9-8 8-8 5-12 4-16 1-14-3-9-5-9-8-7-11-2-4h-2l-5 5-8 7-13 8-15 7-12 3-9 1h-9l-14-3-9-5-10-9-7-12-2-3-8 8-14 10-16 8-12 4-14 2h-9l-14-3-12-7-9-10-5-10-3 1-7 8-13 10-14 7-11 3-8 1h-9l-14-2-12-5-10-9-7-10-5-12-3-15v-17l4-28 14-73 3-24v-9l-2-11-5-8-4-2h-12l-8 5-8 9-8 16-6 19-25 133-7 38-2 2h-67l-1-3 9-47 26-139v-22l-4-8-4-3h-11l-10 5-6 7-8 14-6 17-6 28-25 134-3 15-2 2h-67l-1-2 3-13-13 8-15 6-11 3-9 1h-9l-14-3-8-4-10-9-7-10-4-10-3-18v-5l-10 8-20 15-10 13-9 8-11 6-12 5-14 3-11 1h-11l-16-2-12-4-10-6-8-9-8-16-3-10-2-11v-24l4-15 7-12 7-7 7-4 4-1h13l8 3 5 4 3 5 1 4v12l-5 10-7 6-5 2h-12l-5-3-1 1 2 14 5 12 5 5 8 4h15l9-4 5-5 4-9 3-20v-22l-7-86-3-47-9 14-12 16-12 13-12 11-15 10-15 7-4 2-3 27-4 23-7 24-9 21-10 18-9 12-9 10-10 9-13 8-11 5-15 4-10 1h-10l-16-2-12-4-10-5-9-7-8-8-7-12-5-15-3-20v-28l3-24 6-29 4-15 8-22 8-16 8-14 8-11 8-10 9-10 13-10 16-8 13-4 13-2h22l11 2 14 7 11 11 7 12 5 15 3 20 1 16 10-2 12-6 12-11 10-11 12-17 12-21 9-16 21-4 45-7h5l4 81 6 96v35l-1 3 7-4 11-9 2-7 29-154 1-4h-15l1-11 2-10 1-1h15l2-13 12-61 5-2 64-10h2l-1 9-14 74-1 3h28l1 2-4 19-1 1h-28l-2 14-25 133-4 22v16l3 8 8 4h13l10-4 7-6 14-73 23-123 3-13h68l1 2-4 23 6-7 14-11 14-7 13-3h19l12 3 10 6 7 7 8 16 2 7v5l5-5 10-13 11-10 11-7 15-5 6-1h17l14 3 11 6 10 10 7 14 3 15v26l-3 22-8 39-9 43-2 13v12l3 9 5 5 6 2h9l9-3 9-8 2-9 4-28 23-123 9-47 1-1h68l-1 10-32 171-2 13v12l3 8 5 4 4 1h13l9-4 8-6 2-3 4-31 16-86 35-187 2-2zm-934 140-10 5-9 9-9 15-9 19-10 30-7 30-3 22-1 12v18l2 16 4 10 5 4 8 3h9l9-4 8-7 9-13 9-19 8-25 6-29 1-12-5-4-4-8-1-4v-17l3-10 9-10-1-14-4-11-6-5-3-1z" fill="#FEFEFE"/>
<path transform="translate(443,2)" d="m0 0h26l12 4 9 7 6 7 5 12 2 12 6 74 22 284 1 15v14l-3 12-7 11-8 7-12 5-23 3-153 12-129 10h-27l-11-4-10-7-7-10-4-13-3-29-27-350v-16l2-9 5-10 7-8 10-6 11-3 42-4 221-17zm-145 88-50 4-2 1-3 17-8 55-7 49-30 200 12-3 40-12 11-3 3-13 12-79v-7l10 7 10 3h20l18-3 15-5 11-6 10-8 7-7 11-15 8-16 5-14 5-21 3-26v-28l-3-21-6-16-8-11-10-7-10-4-10-2h-10l-17 3-16 6-10 7-5 4 2-18 1-4v-7z" fill="#FEFEFE"/>
<path transform="translate(88,87)" d="m0 0h2l2 17 20 258 6 75 3 24 3 11 6 12 8 10 15 10 12 4 9 1h19l287-22 26-3-6 11-7 8-9 8-13 6-30 8-247 57-33 7-6 1h-20l-13-4-11-6-11-10-7-11-6-16-8-32-10-44-30-129-21-91-13-57-5-24v-23l6-15 7-10 10-10 10-6 21-7z" fill="#295AD0"/>
<path transform="translate(695,105)" d="m0 0h67l1 3-7 37 5-3 11-8 12-6 10-3 7-1h18l10 2 14 7 8 7 7 10 5 11 4 16 2 17v36l-3 28-6 32-7 24-8 19-9 17-11 15-9 10-10 9-14 8-15 5-9 2-11 1h-11l-16-3-10-5-8-9-2 7-19 102-4 20-8 3-59 16-5 1-1-2 16-85 30-161 23-123 10-53zm82 59-11 4-12 11-7 11-9 46-14 75-5 26 1 8 8 7 3 1h12l10-3 11-7 8-9 9-15 7-16 5-15 5-21 4-26 2-30-1-18-4-16-6-8-6-4z" fill="#FEFEFE"/>
<path transform="translate(321,131)" d="m0 0h13l7 4 5 7 4 15v35l-3 24-4 15-7 16-7 12-9 9-11 5-7 2h-11l-6-3-3-3v-10l10-69 4-30 3-11 11-12 8-5z" fill="#FEFEFE"/>
<path transform="translate(1771,15)" d="m0 0 12 1 12 6 8 8 5 8 4 13v16l-4 13-7 10-9 8-11 4h-14l-11-4-10-9-6-9-4-13v-16l4-13 6-9 4-5 11-7z" fill="#FEFEFE"/>
</svg>
