<?xml version="1.0" encoding="UTF-8"?>
<svg version="1.1" viewBox="0 0 1812 2000" width="453" height="500" xmlns="http://www.w3.org/2000/svg">
<path transform="translate(1463,5)" d="m0 0h62l25 3 17 4 17 6 16 8 11 6 13 9 16 13 16 16 11 14 10 15 8 15 7 19 6 23 6 35 5 47 6 74 24 310 13 168 21 271 21 272 4 56 2 44v23l-2 30-4 22-5 16-9 21-9 15-10 14-8 10-11 12-12 11-18 13-18 10-17 7-20 6h-2l-1 5-10 19-12 18-11 13-7 8-9 9-14 11-13 8-17 9-26 10-33 10-64 16-312 72-516 119-60 13-35 6-25 3-13 1h-14l-25-3-22-6-20-8-16-8-14-9-13-10-14-12-7-7-9-11-11-16-10-19-10-26-10-32-16-64-25-108-24-104-26-113-90-390-17-74-51-221-17-74-9-45-7-39v-58l7-25 7-19 8-16 12-20 13-16 5-5 6-7 8-7 11-9 14-9 17-9 23-9 25-8 30-8 53-13 53-12 2-1v-85l3-23 5-20 8-20 12-22 13-18 15-16 10-10 17-13 16-10 17-8 18-6 27-6 32-5 51-5 87-7 672-52 119-9z" fill="#FDFDFD"/>
<path transform="translate(1463,5)" d="m0 0h62l25 3 17 4 17 6 16 8 11 6 13 9 16 13 16 16 11 14 10 15 8 15 7 19 6 23 6 35 5 47 6 74 24 310 13 168 21 271 21 272 4 56 2 44v23l-2 30-4 22-5 16-9 21-9 15-10 14-8 10-11 12-12 11-18 13-18 10-17 7-20 6h-2l-1 5-10 19-12 18-11 13-7 8-9 9-14 11-13 8-17 9-26 10-33 10-64 16-312 72-516 119-60 13-35 6-25 3-13 1h-14l-25-3-22-6-20-8-16-8-14-9-13-10-14-12-7-7-9-11-11-16-10-19-10-26-10-32-16-64-25-108-24-104-26-113-90-390-17-74-51-221-17-74-9-45-7-39v-58l7-25 7-19 8-16 12-20 13-16 5-5 6-7 8-7 11-9 14-9 17-9 23-9 25-8 30-8 53-13 53-12 2-1v-85l3-23 5-20 8-20 12-22 13-18 15-16 10-10 17-13 16-10 17-8 18-6 27-6 32-5 51-5 87-7 672-52 119-9zm12 61-54 3-854 66-56 5-38 5-25 5-18 6-18 10-13 11-15 15-11 15-9 17-5 14-3 16-1 9v60l5 73 21 271 15 194 12 155 28 362 8 102 5 48 5 32 6 23 6 15 9 14 8 10 16 16 14 10 16 9 17 6 15 3 10 1h56l61-4 874-68 45-5 29-5 21-6 12-5 15-9 13-11 11-11 11-15 7-12 7-17 4-20 1-8v-59l-3-48-13-168-20-259-29-375-14-183-10-125-4-40-4-30-6-28-7-19-9-15-9-11-16-16-17-12-16-8-13-5-17-3-14-1z" fill="#2C5ED2"/>
<path transform="translate(996,368)" d="m0 0h11l-3 27-8 65v3l8-7 10-9 15-11 16-10 19-10 21-8 23-6 24-4 13-1h23l18 2 19 5 13 5 19 10 12 9 10 9 7 7 10 14 9 16 7 16 8 24 5 21 5 32 2 19 2 40v38l-2 40-4 37-6 39-6 29-8 30-9 26-12 28-11 22-12 20-8 12-10 14-13 16-7 8-19 19-17 13-14 9-18 10-16 7-30 10-22 5-18 3-20 2h-34l-24-4-19-7-14-8-13-12-5-5-1 12-28 220-10 80-1 3-16 6-55 18-116 38h-1v-8l4-29 9-72 9-70 15-120 9-69 11-88 19-150 9-72 9-70 31-246 3-23 1-4 54-5z" fill="#16101A"/>
<path transform="translate(1463,5)" d="m0 0h62l25 3 17 4 17 6 16 8 11 6 13 9 16 13 16 16 11 14 10 15 8 15 7 19 6 23 6 35 5 47 6 74 24 310 13 168 21 271 21 272 4 56 2 44v23l-2 30-4 22-5 16-9 21-9 15-10 14-8 10-11 12-12 11-18 13-18 10-17 7-20 6h-2v2l-46 7-59 6-86 7-68 5-87 7-464 36-173 13-68 4h-22l-37-4-21-5-17-6-23-12-16-11-14-12-18-18-9-11-12-18-11-23-6-20-6-28-4-26-4-36-7-86-4-53-9-116-7-91-9-116-11-143-12-154-16-208-7-92-5-62-2-29-1-24v-68l3-23 5-20 8-20 12-22 13-18 15-16 10-10 17-13 16-10 17-8 18-6 27-6 32-5 51-5 87-7 672-52 119-9zm12 61-54 3-854 66-56 5-38 5-25 5-18 6-18 10-13 11-15 15-11 15-9 17-5 14-3 16-1 9v60l5 73 21 271 15 194 12 155 28 362 8 102 5 48 5 32 6 23 6 15 9 14 8 10 16 16 14 10 16 9 17 6 15 3 10 1h56l61-4 874-68 45-5 29-5 21-6 12-5 15-9 13-11 11-11 11-15 7-12 7-17 4-20 1-8v-59l-3-48-13-168-20-259-29-375-14-183-10-125-4-40-4-30-6-28-7-19-9-15-9-11-16-16-17-12-16-8-13-5-17-3-14-1z" fill="#16101A"/>
<path transform="translate(1062,496)" d="m0 0h16l10 2 12 6 8 6 10 13 7 14 6 18 5 26 3 30v62l-2 28-4 36-4 26-8 37-9 29-11 28-14 28-10 16-10 13-6 7-8 7-10 8-16 9-15 6-18 4h-26l-10-3-9-5-7-6-5-8-1-9 32-256 12-95 2-9 9-16 9-12 12-14 12-10 11-7 13-6z" fill="#FDFDFD"/>
</svg>
