<?xml version="1.0" encoding="UTF-8"?>
<svg version="1.1" viewBox="0 0 2048 741" width="461" height="167" xmlns="http://www.w3.org/2000/svg">
<path transform="translate(1882)" d="m0 0 2 1-3 22-36 192-23 123-14 74-4 27v12l3 12 3 4v2l12 4h16l12-4 9-6 7-6 1-4 2-24 6-37 30-159 36-191 5-24 7-2 92-14h2l-1 10-13 70-19 101-18 96-28 150-1 9v12l4 13 5 6 10 4h18l8-2h4l-1 11-4 17-5 12-8 12-13 13-14 8-16 5-8 1h-16l-14-3-16-8-10-9-7-8-8-14-1-4-5 5-10 9-14 10-16 9-16 7-15 4-15 2h-16l-14-3-10-4-10-7-8-7-10-14-5-11-8 7-7 7-14 10-16 9-19 8-17 4-10 1h-16l-15-3-16-8-12-11-8-11-4-8-2-3-11 12-10 9-15 10-15 7-13 4-14 2h-17l-17-3-13-5-13-9-9-10-8-14-6-16-3-15-1-17 2-24 8-47 14-71 6-39v-27l-3-12-5-8-5-4-8-2-11 1-8 4-10 9-9 14-9 19-6 18-7 34-16 86-18 96-7 36-3 2h-93l-3-1 1-9 23-122 23-123 3-17 1-10v-10l-2-12-5-10-6-4-4-1h-7l-10 3-9 6-7 7-8 13-7 14-8 24-6 29-23 123-18 96-1 3-3 1h-91l-5-1 2-11 2-10-16 10-17 8-16 5-9 2-10 1h-16l-15-3-16-8-12-11-8-11-6-12-5-20-1-8v-12l-10 8-14 11-18 14-7 8-7 9-10 10-10 7-16 8-18 6-16 3-11 1h-21l-21-3-15-5-13-7-9-8-7-10-8-16-5-15-3-15-1-10v-22l3-17 5-14 8-13 11-11 12-6 4-1h15l9 2 10 6 5 7 3 10v13l-3 9-5 8-5 5-6 4-7 2h-16l-9-6 3 22 6 16 7 9 12 6 4 1h15l11-3 8-5 6-7 5-12 3-17 1-9v-35l-9-109-4-59v-22l-3 3-12 19-12 16-11 13-12 13-11 10-16 12-19 11-17 7h-2l-2 27-5 32-7 30-9 27-9 20-11 21-13 19-12 14-12 12-15 11-18 10-21 7-21 3h-20l-20-3-18-6-15-8-10-8-11-11-8-13-6-13-5-18-3-20-1-26 1-22 4-31 7-35 6-24 9-26 8-18 10-20 12-19 9-12 8-10 11-13 8-7 13-10 16-9 14-6 21-5 17-2h21l14 2 13 4 12 7 12 10 8 11 8 15 6 19 4 25 1 11v16l17-4 15-8 13-11 11-11 11-14 10-14 13-21 12-22 9-16 8-2 89-14h4l1 2 3 72 5 87 6 94v53l14-10 11-8 3-13 16-86 24-127 2-12-2 1h-19l-1-4 5-26 3-2h19l5-22 14-73 2-10 2-2 95-15h5l-2 13-17 91-4 19h41l-5 30-4 1h-38l-2 14-15 81-14 73-12 65-2 13v17l3 10 5 6 7 3 5 1h12l13-4 11-7 4-5 28-149 26-139 3-10h98l-2 13-4 23 18-18 14-10 17-8 15-4 9-1h18l17 3 14 7 10 8 8 11 6 12 4 12 2 10 1 1 12-17 11-12 9-9 13-9 14-7 14-4 23-2 19 2 15 5 11 7 10 9 6 8 7 14 4 14 2 16v24l-2 22-5 29-10 48-10 47-4 22-1 10v13l3 12 4 6 5 4 6 2h17l11-4 9-7 4-5 2-4 5-39 25-134 22-117 1-3h99l-5 28-16 85-18 96-10 54-2 13v19l4 11 6 5 5 2 6 1h10l11-3 10-5 10-9 2-6 3-29 8-45 25-133 30-160 12-65 2-2 35-6 58-9zm-1344 203-12 6-10 9-10 14-12 22-10 23-10 30-9 36-5 27-3 25v46l4 20 6 10 8 5 10 3h9l10-3 9-6 10-10 10-15 11-23 9-25 8-30 5-26 2-13v-5l-9-8-4-8-2-9v-21l3-12 5-9 9-8 1-5-2-16-4-12-5-8-8-4z" fill="#1A151E"/>
<path transform="translate(114,129)" d="m0 0h98l-1 10-8 44-1 4 20-15 16-9 15-5 19-3h18l17 3 16 8 11 8 9 10 8 13 6 16 4 16 3 24 1 19-1 39-3 28-6 36-6 27-8 26-8 20-8 16-9 16-12 17-11 13-12 12-16 11-17 8-16 5-16 3-11 1h-19l-17-3-12-5-11-8-7-9-5 25-12 65-12 63-6 32-5 3-74 20-25 7 1-9 19-103 29-155 28-150 30-161 6-31zm117 84-11 4-11 8-8 8-9 13-3 8-8 41-25 134-6 32v7l5 8 7 5 6 2h16l14-4 10-6 10-9 8-9 9-15 8-16 8-20 7-24 6-28 4-26 2-22 1-18v-17l-2-21-4-14-6-11-8-7-9-3z" fill="#1A151E"/>
<path transform="translate(1647)" d="m0 0h25l16 8 10 9 9 12 5 12 2 8 1 15-2 16-5 13-7 11-5 6-11 8-9 4-10 2h-14l-13-4-10-6-10-10-8-14-4-11-1-5v-23l4-15 7-13 11-12 9-6z" fill="#1A151E"/>
</svg>
